HIERARCHY
ROOT Hips
{
  OFFSET 5.72205e-005 65.662 3.42586
  CHANNELS 6 Xposition Yposition Zposition Zrotation Xrotation Yrotation
  JOINT Chest
  {
    OFFSET 0 8.7983 -4.7612
    CHANNELS 6 Xposition Yposition Zposition Zrotation Xrotation Yrotation
    JOINT Chest2
    {
      OFFSET 0 8.0291 0.4195
      CHANNELS 6 Xposition Yposition Zposition Zrotation Xrotation Yrotation
      JOINT Chest3
      {
        OFFSET 0 9.9351 -2.2114
        CHANNELS 6 Xposition Yposition Zposition Zrotation Xrotation Yrotation
        JOINT Neck
        {
          OFFSET 0 22.3885 -0.4656
          CHANNELS 6 Xposition Yposition Zposition Zrotation Xrotation Yrotation
          JOINT Head
          {
            OFFSET -0.0001 12.643 3.4389
            CHANNELS 6 Xposition Yposition Zposition Zrotation Xrotation Yrotation
            End Site
            {
              OFFSET 0.0001 17.6655 0.5274
            }
          }
        }
        JOINT LeftCollar
        {
          OFFSET 2.2603 21.606 7.4023
          CHANNELS 6 Xposition Yposition Zposition Zrotation Xrotation Yrotation
          JOINT LeftShoulder
          {
            OFFSET 13.5163 -1.1332 -5.0146
            CHANNELS 6 Xposition Yposition Zposition Zrotation Xrotation Yrotation
            JOINT LeftElbow
            {
              OFFSET -0.0995 -28.05 -0.2431
              CHANNELS 6 Xposition Yposition Zposition Zrotation Xrotation Yrotation
              JOINT LeftWrist
              {
                OFFSET 0.0679 -23.3996 -0.1402
                CHANNELS 6 Xposition Yposition Zposition Zrotation Xrotation Yrotation
                JOINT LeftFinger1
                {
                  OFFSET 0.7932 -9.069 2.5189
                  CHANNELS 6 Xposition Yposition Zposition Zrotation Xrotation Yrotation
                  JOINT LeftFinger11
                  {
                    OFFSET -0.8272 -3.3923 0.5977
                    CHANNELS 6 Xposition Yposition Zposition Zrotation Xrotation Yrotation
                    JOINT LeftFinger12
                    {
                      OFFSET -0.5649 -2.3158 0.4082
                      CHANNELS 6 Xposition Yposition Zposition Zrotation Xrotation Yrotation
                      End Site
                      {
                        OFFSET -0.4919 -1.6479 0.2673
                      }
                    }
                  }
                }
                JOINT LeftFinger2
                {
                  OFFSET 0.9159 -9.2044 0.2193
                  CHANNELS 6 Xposition Yposition Zposition Zrotation Xrotation Yrotation
                  JOINT LeftFinger21
                  {
                    OFFSET 0.0117 -4.1944 -0.0248
                    CHANNELS 6 Xposition Yposition Zposition Zrotation Xrotation Yrotation
                    JOINT LeftFinger22
                    {
                      OFFSET 0.0071 -2.3249 -0.0142
                      CHANNELS 6 Xposition Yposition Zposition Zrotation Xrotation Yrotation
                      End Site
                      {
                        OFFSET -0.1475 -2.0882 0.0028
                      }
                    }
                  }
                }
                JOINT LeftFinger3
                {
                  OFFSET 0.6113 -8.7231 -2.0637
                  CHANNELS 6 Xposition Yposition Zposition Zrotation Xrotation Yrotation
                  JOINT LeftFinger31
                  {
                    OFFSET -0.1927 -3.8059 -0.2383
                    CHANNELS 6 Xposition Yposition Zposition Zrotation Xrotation Yrotation
                    JOINT LeftFinger32
                    {
                      OFFSET -0.1091 -2.1688 -0.1362
                      CHANNELS 6 Xposition Yposition Zposition Zrotation Xrotation Yrotation
                      End Site
                      {
                        OFFSET -0.2358 -1.9176 -0.0906
                      }
                    }
                  }
                }
                JOINT LeftFinger4
                {
                  OFFSET -0.6151 -8.0947 -3.5641
                  CHANNELS 6 Xposition Yposition Zposition Zrotation Xrotation Yrotation
                  JOINT LeftFinger41
                  {
                    OFFSET -0.4882 -2.341 -0.6462
                    CHANNELS 6 Xposition Yposition Zposition Zrotation Xrotation Yrotation
                    JOINT LeftFinger42
                    {
                      OFFSET -0.3575 -1.7167 -0.4742
                      CHANNELS 6 Xposition Yposition Zposition Zrotation Xrotation Yrotation
                      End Site
                      {
                        OFFSET -0.4187 -1.5237 -0.3496
                      }
                    }
                  }
                }
                JOINT LeftFinger0
                {
                  OFFSET -1.42 -1.8761 1.4223
                  CHANNELS 6 Xposition Yposition Zposition Zrotation Xrotation Yrotation
                  JOINT LeftFinger01
                  {
                    OFFSET -1.1471 -3.4929 2.6334
                    CHANNELS 6 Xposition Yposition Zposition Zrotation Xrotation Yrotation
                    JOINT LeftFinger02
                    {
                      OFFSET -0.823 -2.3 1.6571
                      CHANNELS 6 Xposition Yposition Zposition Zrotation Xrotation Yrotation
                      End Site
                      {
                        OFFSET -0.5822 -1.6914 1.1582
                      }
                    }
                  }
                }
              }
            }
          }
        }
        JOINT RightCollar
        {
          OFFSET -2.2603 21.606 7.4023
          CHANNELS 6 Xposition Yposition Zposition Zrotation Xrotation Yrotation
          JOINT RightShoulder
          {
            OFFSET -13.5187 -1.1334 -5.0155
            CHANNELS 6 Xposition Yposition Zposition Zrotation Xrotation Yrotation
            JOINT RightElbow
            {
              OFFSET 0.0994 -28.0499 -0.2431
              CHANNELS 6 Xposition Yposition Zposition Zrotation Xrotation Yrotation
              JOINT RightWrist
              {
                OFFSET -0.0679 -23.3996 -0.1402
                CHANNELS 6 Xposition Yposition Zposition Zrotation Xrotation Yrotation
                JOINT RightFinger1
                {
                  OFFSET -0.7932 -9.0691 2.5189
                  CHANNELS 6 Xposition Yposition Zposition Zrotation Xrotation Yrotation
                  JOINT RightFinger11
                  {
                    OFFSET 0.8272 -3.3923 0.5977
                    CHANNELS 6 Xposition Yposition Zposition Zrotation Xrotation Yrotation
                    JOINT RightFinger12
                    {
                      OFFSET 0.565 -2.3158 0.4082
                      CHANNELS 6 Xposition Yposition Zposition Zrotation Xrotation Yrotation
                      End Site
                      {
                        OFFSET 0.4919 -1.6479 0.2673
                      }
                    }
                  }
                }
                JOINT RightFinger2
                {
                  OFFSET -0.916 -9.2044 0.2193
                  CHANNELS 6 Xposition Yposition Zposition Zrotation Xrotation Yrotation
                  JOINT RightFinger21
                  {
                    OFFSET -0.0117 -4.1944 -0.0248
                    CHANNELS 6 Xposition Yposition Zposition Zrotation Xrotation Yrotation
                    JOINT RightFinger22
                    {
                      OFFSET -0.0071 -2.3249 -0.0142
                      CHANNELS 6 Xposition Yposition Zposition Zrotation Xrotation Yrotation
                      End Site
                      {
                        OFFSET 0.1475 -2.0882 0.0028
                      }
                    }
                  }
                }
                JOINT RightFinger3
                {
                  OFFSET -0.6113 -8.7231 -2.0637
                  CHANNELS 6 Xposition Yposition Zposition Zrotation Xrotation Yrotation
                  JOINT RightFinger31
                  {
                    OFFSET 0.1927 -3.8059 -0.2383
                    CHANNELS 6 Xposition Yposition Zposition Zrotation Xrotation Yrotation
                    JOINT RightFinger32
                    {
                      OFFSET 0.1091 -2.1688 -0.1362
                      CHANNELS 6 Xposition Yposition Zposition Zrotation Xrotation Yrotation
                      End Site
                      {
                        OFFSET 0.2358 -1.9176 -0.0906
                      }
                    }
                  }
                }
                JOINT RightFinger4
                {
                  OFFSET 0.6151 -8.0947 -3.564
                  CHANNELS 6 Xposition Yposition Zposition Zrotation Xrotation Yrotation
                  JOINT RightFinger41
                  {
                    OFFSET 0.4882 -2.341 -0.6462
                    CHANNELS 6 Xposition Yposition Zposition Zrotation Xrotation Yrotation
                    JOINT RightFinger42
                    {
                      OFFSET 0.3574 -1.7166 -0.4742
                      CHANNELS 6 Xposition Yposition Zposition Zrotation Xrotation Yrotation
                      End Site
                      {
                        OFFSET 0.4187 -1.5237 -0.3496
                      }
                    }
                  }
                }
                JOINT RightFinger0
                {
                  OFFSET 1.4199 -1.8761 1.4221
                  CHANNELS 6 Xposition Yposition Zposition Zrotation Xrotation Yrotation
                  JOINT RightFinger01
                  {
                    OFFSET 1.1472 -3.4929 2.6336
                    CHANNELS 6 Xposition Yposition Zposition Zrotation Xrotation Yrotation
                    JOINT RightFinger02
                    {
                      OFFSET 0.8229 -2.3 1.6571
                      CHANNELS 6 Xposition Yposition Zposition Zrotation Xrotation Yrotation
                      End Site
                      {
                        OFFSET 0.5822 -1.6914 1.1582
                      }
                    }
                  }
                }
              }
            }
          }
        }
      }
    }
  }
  JOINT RightHip
  {
    OFFSET -9.412 3.9771 -0.7758
    CHANNELS 6 Xposition Yposition Zposition Zrotation Xrotation Yrotation
    JOINT RightKnee
    {
      OFFSET -0.7531 -40.938 0
      CHANNELS 6 Xposition Yposition Zposition Zrotation Xrotation Yrotation
      JOINT RightAnkle
      {
        OFFSET 0 -40.1986 0
        CHANNELS 6 Xposition Yposition Zposition Zrotation Xrotation Yrotation
        JOINT RightToe
        {
          OFFSET 0 -4.4182 9.239
          CHANNELS 6 Xposition Yposition Zposition Zrotation Xrotation Yrotation
          End Site
          {
            OFFSET 0 0 6.1981
          }
        }
      }
    }
  }
  JOINT LeftHip
  {
    OFFSET 9.4119 3.9773 -0.7758
    CHANNELS 6 Xposition Yposition Zposition Zrotation Xrotation Yrotation
    JOINT LeftKnee
    {
      OFFSET 0.7532 -40.9383 0
      CHANNELS 6 Xposition Yposition Zposition Zrotation Xrotation Yrotation
      JOINT LeftAnkle
      {
        OFFSET 0 -40.1986 0
        CHANNELS 6 Xposition Yposition Zposition Zrotation Xrotation Yrotation
        JOINT LeftToe
        {
          OFFSET 0 -4.4182 9.239
          CHANNELS 6 Xposition Yposition Zposition Zrotation Xrotation Yrotation
          End Site
          {
            OFFSET 0 0 6.1981
          }
        }
      }
    }
  }
}
MOTION
Frames:	4
Frame Time:	0.0333333
5.72205e-005 65.662 3.42586 0 0 -0 0 8.7983 -4.7612 0 0 -0 0 8.0291 0.4195 0 0 -0 0 9.9351 -2.2114 0 0 -0 0 22.3885 -0.4656 0 0 -0 -0.0001 12.643 3.4389 0 0 -0 2.2603 21.606 7.4023 0 0 -12.5014 13.5163 -1.1332 -5.0146 88.1196 14.2451 10.6914 -0.0995 -28.05 -0.2431 -0.00160068 -0.00239207 0.000740045 0.0679 -23.3996 -0.1402 -8.4365e-005 7.00714e-005 -9.52055e-007 0.7932 -9.069 2.5189 9.93923e-017 -1.98785e-016 -1.59028e-015 -0.8272 -3.3923 0.5977 9.93923e-017 -5.96354e-016 -1.59028e-015 -0.5649 -2.3158 0.4082 -9.93923e-017 -5.96354e-016 -1.59028e-015 0.9159 -9.2044 0.2193 9.93923e-017 -1.98785e-016 -1.59028e-015 0.0117 -4.1944 -0.0248 -0.0128176 0.00232552 8.52707e-005 0.0071 -2.3249 -0.0142 9.93923e-017 5.96354e-016 -0 0.6113 -8.7231 -2.0637 9.93923e-017 -1.98785e-016 -1.59028e-015 -0.1927 -3.8059 -0.2383 -0.0160551 0.00299681 0.000857156 -0.1091 -2.1688 -0.1362 -2.48481e-016 0 3.18055e-015 -0.6151 -8.0947 -3.5641 9.93923e-017 -1.98785e-016 -1.59028e-015 -0.4882 -2.341 -0.6462 -0.0125865 0.0031206 0.00282719 -0.3575 -1.7167 -0.4742 0 1.98785e-016 -0 -1.42 -1.8761 1.4223 9.93923e-017 -1.98785e-016 -1.59028e-015 -1.1471 -3.4929 2.6334 9.93923e-017 -5.96354e-016 -1.59028e-015 -0.823 -2.3 1.6571 -9.93923e-017 -5.96354e-016 -1.59028e-015 -2.2603 21.606 7.4023 -0.865644 0.16582 7.03859 -13.5187 -1.1334 -5.0155 -88.0329 10.2057 -10.5567 0.0994 -28.0499 -0.2431 0.0015593 -0.00248883 -0.000788628 -0.0679 -23.3996 -0.1402 7.87605e-005 4.10553e-005 1.24965e-005 -0.7932 -9.0691 2.5189 -3.97569e-016 -7.95139e-016 3.18055e-015 0.8272 -3.3923 0.5977 -1.98785e-016 -3.97569e-016 3.18055e-015 0.565 -2.3158 0.4082 -1.98785e-016 0 3.18055e-015 -0.916 -9.2044 0.2193 -3.97569e-016 -7.95139e-016 3.18055e-015 -0.0117 -4.1944 -0.0248 0.0129473 0.00231697 -8.70038e-005 -0.0071 -2.3249 -0.0142 9.93923e-017 -7.95139e-016 1.59028e-015 -0.6113 -8.7231 -2.0637 -3.97569e-016 -7.95139e-016 3.18055e-015 0.1927 -3.8059 -0.2383 0.0163314 0.00303369 -0.000872333 0.1091 -2.1688 -0.1362 3.97569e-016 7.95139e-016 -3.18055e-015 0.6151 -8.0947 -3.564 -3.97569e-016 -7.95139e-016 3.18055e-015 0.4882 -2.341 -0.6462 0.0145763 0.00367772 -0.00326275 0.3574 -1.7166 -0.4742 9.93923e-017 -3.97569e-016 -0 1.4199 -1.8761 1.4221 -3.97569e-016 -7.95139e-016 3.18055e-015 1.1472 -3.4929 2.6336 -1.98785e-016 -3.97569e-016 3.18055e-015 0.8229 -2.3 1.6571 -1.98785e-016 0 3.18055e-015 -9.412 3.9771 -0.7758 3.42482 1.32465 -0.0626183 -0.7531 -40.938 0 0.000117508 0.717283 0.000978199 0 -40.1986 0 -3.4257 -2.04197 -0.0604716 8.88178e-016 -4.4182 9.239 6.47761e-025 0 -0 9.4119 3.9773 -0.7758 -3.42483 1.34017 0.0627307 0.7532 -40.9383 -2.22045e-016 -0.000193936 0.682302 -0.0013703 -8.88179e-016 -40.1986 0 3.42574 -2.02253 0.0595886 -8.88178e-016 -4.4182 9.239 -8.45714e-024 0 -7.40531e-025 
1.90288 34.604 20.1916 132.722 -53.9372 -0.373978 0 8.7983 -4.7612 -0.0518355 -3.67822 -0.213868 -3.55271e-015 8.0291 0.4195 -0.117809 -7.35623 -0.432415 3.55271e-015 9.9351 -2.2114 -0.117809 -7.35624 -0.432414 -3.55271e-015 22.3885 -0.4656 0.0655749 0.148624 0.082101 -0.0001 12.643 3.4389 3.9006e-006 0.122775 -6.41163e-006 2.2603 21.606 7.4023 11.4603 -0.577113 -18.918 13.5163 -1.1332 -5.0146 82.5153 -10.3178 25.4396 -0.0995 -28.05 -0.2431 -14.7257 -37.547 -14.1266 0.0679 -23.3996 -0.1402 44.0332 -6.62945 4.11865 0.7932 -9.069 2.5189 -2.05583e-006 3.94865e-006 6.58816e-006 -0.8272 -3.3923 0.5977 6.36111e-015 2.78299e-015 7.95139e-016 -0.5649 -2.3158 0.4082 0 1.19271e-015 -0 0.9159 -9.2044 0.2193 -2.05583e-006 3.94865e-006 6.58816e-006 0.0117 -4.1944 -0.0248 -0.0128283 0.00232605 9.00054e-005 0.0071 -2.3249 -0.0142 3.18055e-015 -2.78299e-015 -3.97569e-015 0.6113 -8.7231 -2.0637 -2.05583e-006 3.94865e-006 6.58816e-006 -0.1927 -3.8059 -0.2383 -0.016045 0.00299338 0.00085336 -0.1091 -2.1688 -0.1362 -9.54166e-015 -9.54166e-015 1.59028e-015 -0.6151 -8.0947 -3.5641 -2.05583e-006 3.94865e-006 6.58816e-006 -0.4882 -2.341 -0.6462 -0.0126085 0.00312275 0.00282918 -0.3575 -1.7167 -0.4742 -6.36111e-015 -3.97569e-016 -4.77083e-015 -1.42 -1.8761 1.4223 -2.05583e-006 3.94865e-006 6.58816e-006 -1.1471 -3.4929 2.6334 6.36111e-015 2.78299e-015 7.95139e-016 -0.823 -2.3 1.6571 0 1.19271e-015 -0 -2.2603 21.606 7.4023 12.9643 0.0350553 5.78203 -13.5187 -1.1334 -5.0155 -75.4503 -23.413 -1.54365 0.0994 -28.0499 -0.2431 -10.283 -25.2266 -11.2856 -0.0679 -23.3996 -0.1402 -44.0522 -6.14403 -5.10271 -0.7932 -9.0691 2.5189 1.65917e-005 -4.58936e-006 4.55253e-006 0.8272 -3.3923 0.5977 -2.70182e-006 -5.44625e-006 -8.60219e-006 0.565 -2.3158 0.4082 3.18055e-015 -1.59028e-015 3.18055e-015 -0.916 -9.2044 0.2193 1.65917e-005 -4.58936e-006 4.55253e-006 -0.0117 -4.1944 -0.0248 0.012934 0.00232912 -8.56042e-005 -0.0071 -2.3249 -0.0142 -6.36111e-015 -4.77083e-015 -0 -0.6113 -8.7231 -2.0637 1.65917e-005 -4.58936e-006 4.55253e-006 0.1927 -3.8059 -0.2383 0.0163052 0.00301996 -0.000868434 0.1091 -2.1688 -0.1362 -3.18055e-015 -6.36111e-015 -0 0.6151 -8.0947 -3.564 1.65917e-005 -4.58936e-006 4.55253e-006 0.4882 -2.341 -0.6462 0.0145999 0.00368844 -0.00326716 0.3574 -1.7166 -0.4742 3.18055e-015 -3.18055e-015 -6.36111e-015 1.4199 -1.8761 1.4221 1.65917e-005 -4.58936e-006 4.55253e-006 1.1472 -3.4929 2.6336 -2.70182e-006 -5.44625e-006 -8.60219e-006 0.8229 -2.3 1.6571 3.18055e-015 -1.59028e-015 3.18055e-015 -9.412 3.9771 -0.7758 -9.30131 -43.7348 -25.1075 -0.7531 -40.938 -3.55271e-015 4.88018 40.0628 -2.68595 -2.22045e-015 -40.1986 0 -5.87971 32.5666 8.10745 -4.44089e-016 -4.4182 9.239 -1.15927e-006 5.6594e-007 -2.28272e-006 9.4119 3.9773 -0.7758 8.87525 -42.1435 24.3858 0.7532 -40.9383 1.77636e-015 -4.76275 38.4491 2.57116 0 -40.1986 -7.10543e-015 5.15303 31.7987 -7.92668 0 -4.4182 9.239 3.18055e-015 1.27222e-014 -7.95139e-016 
1.60221 11.4029 24.1848 -168.713 -78.8892 -1.63806 0 8.7983 -4.7612 -0.0741889 -5.27369 -0.312341 -8.88178e-016 8.0291 0.4195 -0.178545 -10.5469 -0.63563 -8.88178e-016 9.9351 -2.2114 -0.178544 -10.5469 -0.635627 8.88178e-016 22.3885 -0.4656 0.109768 0.268445 0.103071 -0.0001 12.643 3.4389 -2.4838e-006 0.153734 -1.04642e-006 2.2603 21.606 7.4023 16.3387 -0.540957 -22.1889 13.5163 -1.1332 -5.0146 80.2663 -21.344 32.0674 -0.0995 -28.05 -0.2431 -24.3523 -53.7608 -23.9218 0.0679 -23.3996 -0.1402 64.0889 -8.46647 7.43792 0.7932 -9.069 2.5189 8.65539e-032 -7.95139e-016 6.23687e-015 -0.8272 -3.3923 0.5977 -0 0 6.41081e-015 -0.5649 -2.3158 0.4082 3.97569e-016 -7.95139e-016 3.27995e-015 0.9159 -9.2044 0.2193 8.65539e-032 -7.95139e-016 6.23687e-015 0.0117 -4.1944 -0.0248 -0.012807 0.00231324 8.83777e-005 0.0071 -2.3249 -0.0142 0 0 -1.38404e-014 0.6113 -8.7231 -2.0637 8.65539e-032 -7.95139e-016 6.23687e-015 -0.1927 -3.8059 -0.2383 -0.0160761 0.00299736 0.000859602 -0.1091 -2.1688 -0.1362 7.95139e-016 0 -1.56543e-015 -0.6151 -8.0947 -3.5641 8.65539e-032 -7.95139e-016 6.23687e-015 -0.4882 -2.341 -0.6462 -0.0126158 0.00313065 0.00283531 -0.3575 -1.7167 -0.4742 -5.58635e-032 7.95139e-016 4.02539e-015 -1.42 -1.8761 1.4223 8.65539e-032 -7.95139e-016 6.23687e-015 -1.1471 -3.4929 2.6334 -0 0 6.41081e-015 -0.823 -2.3 1.6571 3.97569e-016 -7.95139e-016 3.27995e-015 -2.2603 21.606 7.4023 19.3681 0.131376 5.40992 -13.5187 -1.1334 -5.0155 -70.8076 -38.5089 1.73195 0.0994 -28.0499 -0.2431 -14.6537 -36.2763 -15.6115 -0.0679 -23.3996 -0.1402 -64.0391 -7.46987 -8.56126 -0.7932 -9.0691 2.5189 3.97569e-016 0 -1.98785e-016 0.8272 -3.3923 0.5977 3.97569e-016 -9.54166e-015 -5.96354e-016 0.565 -2.3158 0.4082 3.97569e-016 -6.36111e-015 -5.96354e-016 -0.916 -9.2044 0.2193 3.97569e-016 0 -1.98785e-016 -0.0117 -4.1944 -0.0248 0.0129413 0.00231013 -8.59054e-005 -0.0071 -2.3249 -0.0142 1.19271e-015 1.27222e-014 5.96354e-016 -0.6113 -8.7231 -2.0637 3.97569e-016 0 -1.98785e-016 0.1927 -3.8059 -0.2383 0.0163187 0.00302721 -0.000862409 0.1091 -2.1688 -0.1362 -7.95139e-016 -6.36111e-015 -0 0.6151 -8.0947 -3.564 3.97569e-016 0 -1.98785e-016 0.4882 -2.341 -0.6462 0.0145953 0.00368552 -0.00325965 0.3574 -1.7166 -0.4742 2.20695e-032 -6.36111e-015 1.98785e-016 1.4199 -1.8761 1.4221 3.97569e-016 0 -1.98785e-016 1.1472 -3.4929 2.6336 3.97569e-016 -9.54166e-015 -5.96354e-016 0.8229 -2.3 1.6571 3.97569e-016 -6.36111e-015 -5.96354e-016 -9.412 3.9771 -0.7758 -34.4439 -55.1474 -50.4987 -0.7531 -40.938 3.55271e-015 7.67355 56.5722 -5.08512 0 -40.1986 0 -12.125 47.6543 15.3837 3.55271e-015 -4.4182 9.239 -6.89596e-006 1.16479e-005 -1.30955e-006 9.4119 3.9773 -0.7758 33.13 -55.1446 49.197 0.7532 -40.9383 0 -7.80591 54.918 5.54751 0 -40.1986 -3.55271e-015 11.976 47.5258 -15.1218 0 -4.4182 9.23899 -1.48227e-006 -1.32131e-007 1.21639e-006 
0.821919 16.2092 23.3218 178.553 -74.866 -1.0969 0 8.7983 -4.7612 -0.0718495 -4.78601 -0.289555 0 8.0291 0.4195 -0.168959 -9.5716 -0.588255 1.11022e-016 9.9351 -2.2114 -0.168959 -9.57161 -0.588255 -1.11022e-016 22.3885 -0.4656 0.132962 0.35936 0.0628859 -0.0001 12.643 3.4389 -6.8289e-008 0.0928751 -9.77081e-008 2.2603 21.606 7.4023 14.7321 0.0965672 -22.3127 13.5163 -1.1332 -5.0146 80.8291 -18.6613 30.635 -0.0995 -28.05 -0.2431 -21.0842 -49.4331 -20.7585 0.0679 -23.3996 -0.1402 59.5069 -8.75435 6.79859 0.7932 -9.069 2.5189 3.18055e-015 3.97569e-016 -1.78906e-015 -0.8272 -3.3923 0.5977 4.77083e-015 2.38542e-015 -1.49089e-016 -0.5649 -2.3158 0.4082 3.18055e-015 0 9.93923e-016 0.9159 -9.2044 0.2193 3.18055e-015 3.97569e-016 -1.78906e-015 0.0117 -4.1944 -0.0248 -0.0128065 0.00232142 8.2181e-005 0.0071 -2.3249 -0.0142 1.59028e-015 -1.78906e-015 -9.93923e-017 0.6113 -8.7231 -2.0637 3.18055e-015 3.97569e-016 -1.78906e-015 -0.1927 -3.8059 -0.2383 -0.0160655 0.00300658 0.00086605 -0.1091 -2.1688 -0.1362 1.15865e-031 -2.38542e-015 2.78299e-015 -0.6151 -8.0947 -3.5641 3.18055e-015 3.97569e-016 -1.78906e-015 -0.4882 -2.341 -0.6462 -0.0125421 0.00311197 0.0028168 -0.3575 -1.7167 -0.4742 1.59028e-015 -3.97569e-016 -4.07509e-015 -1.42 -1.8761 1.4223 3.18055e-015 3.97569e-016 -1.78906e-015 -1.1471 -3.4929 2.6334 4.77083e-015 2.38542e-015 -1.49089e-016 -0.823 -2.3 1.6571 3.18055e-015 0 9.93923e-016 -2.2603 21.606 7.4023 18.3465 0.455312 5.92188 -13.5187 -1.1334 -5.0155 -71.9746 -34.7273 0.91732 0.0994 -28.0499 -0.2431 -13.5897 -33.3476 -14.6336 -0.0679 -23.3996 -0.1402 -59.3639 -7.67846 -7.64172 -0.7932 -9.0691 2.5189 1.59028e-015 0 -1.59028e-015 0.8272 -3.3923 0.5977 1.59028e-015 0 -7.95139e-016 0.565 -2.3158 0.4082 4.77083e-015 0 7.95139e-016 -0.916 -9.2044 0.2193 1.59028e-015 0 -1.59028e-015 -0.0117 -4.1944 -0.0248 0.0129673 0.00231757 -8.55184e-005 -0.0071 -2.3249 -0.0142 0 0 -7.95139e-016 -0.6113 -8.7231 -2.0637 1.59028e-015 0 -1.59028e-015 0.1927 -3.8059 -0.2383 0.0163139 0.00302518 -0.000869427 0.1091 -2.1688 -0.1362 -1.59028e-015 3.18055e-015 -1.59028e-015 0.6151 -8.0947 -3.564 1.59028e-015 0 -1.59028e-015 0.4882 -2.341 -0.6462 0.0145739 0.00368146 -0.00326001 0.3574 -1.7166 -0.4742 1.31838e-006 3.92626e-006 1.03248e-006 1.4199 -1.8761 1.4221 1.59028e-015 0 -1.59028e-015 1.1472 -3.4929 2.6336 1.59028e-015 0 -7.95139e-016 0.8229 -2.3 1.6571 4.77083e-015 0 7.95139e-016 -9.412 3.9771 -0.7758 -25.2487 -51.8448 -41.0831 -0.7531 -40.938 -3.55271e-015 6.98054 52.2137 -4.47111 0 -40.1986 0 -9.58611 44.4453 12.5656 0 -4.4182 9.239 -7.95139e-016 -3.18055e-015 5.56597e-015 9.4119 3.9773 -0.7758 24.4495 -51.4972 40.141 0.7532 -40.9383 -7.10543e-015 -7.17363 51.1188 4.85602 0 -40.1986 -3.55271e-015 9.26754 43.8383 -12.3047 0 -4.4182 9.239 -2.62396e-014 -1.27222e-014 1.43125e-014 
